<mxfile host="app.diagrams.net" modified="2020-12-02T03:11:00.214Z" agent="5.0 (Windows NT 10.0; Win64; x64) AppleWebKit/537.36 (KHTML, like Gecko) Chrome/87.0.4280.66 Safari/537.36" etag="rzshS849B3SREe2zcLYc" version="13.10.4" type="github">
  <diagram id="53ZCbLg6Crxq5t6ZsU_I" name="第 1 页">
    <mxGraphModel dx="1422" dy="794" grid="1" gridSize="10" guides="1" tooltips="1" connect="1" arrows="1" fold="1" page="1" pageScale="1" pageWidth="827" pageHeight="1169" math="0" shadow="0">
      <root>
        <mxCell id="0" />
        <mxCell id="1" parent="0" />
        <mxCell id="n171kNzoqdh-bRV9AFMk-2" value="380" style="ellipse;whiteSpace=wrap;html=1;" parent="1" vertex="1">
          <mxGeometry x="320" y="60" width="50" height="50" as="geometry" />
        </mxCell>
        <mxCell id="n171kNzoqdh-bRV9AFMk-3" value="381" style="ellipse;whiteSpace=wrap;html=1;" parent="1" vertex="1">
          <mxGeometry x="320" y="170" width="50" height="50" as="geometry" />
        </mxCell>
        <mxCell id="n171kNzoqdh-bRV9AFMk-4" value="" style="endArrow=none;html=1;entryX=0.5;entryY=1;entryDx=0;entryDy=0;exitX=0.5;exitY=0;exitDx=0;exitDy=0;" parent="1" source="n171kNzoqdh-bRV9AFMk-3" target="n171kNzoqdh-bRV9AFMk-2" edge="1">
          <mxGeometry width="50" height="50" relative="1" as="geometry">
            <mxPoint x="390" y="410" as="sourcePoint" />
            <mxPoint x="440" y="360" as="targetPoint" />
          </mxGeometry>
        </mxCell>
        <mxCell id="n171kNzoqdh-bRV9AFMk-5" value="root" style="text;html=1;align=center;verticalAlign=middle;resizable=0;points=[];autosize=1;" parent="1" vertex="1">
          <mxGeometry x="370" y="60" width="40" height="20" as="geometry" />
        </mxCell>
        <mxCell id="n171kNzoqdh-bRV9AFMk-6" value="383" style="ellipse;whiteSpace=wrap;html=1;" parent="1" vertex="1">
          <mxGeometry x="440" y="310" width="50" height="50" as="geometry" />
        </mxCell>
        <mxCell id="n171kNzoqdh-bRV9AFMk-7" value="382" style="ellipse;whiteSpace=wrap;html=1;" parent="1" vertex="1">
          <mxGeometry x="210" y="310" width="50" height="50" as="geometry" />
        </mxCell>
        <mxCell id="n171kNzoqdh-bRV9AFMk-8" value="非身份证" style="endArrow=none;html=1;entryX=0;entryY=1;entryDx=0;entryDy=0;exitX=0.5;exitY=0;exitDx=0;exitDy=0;" parent="1" source="n171kNzoqdh-bRV9AFMk-7" target="n171kNzoqdh-bRV9AFMk-3" edge="1">
          <mxGeometry width="50" height="50" relative="1" as="geometry">
            <mxPoint x="390" y="410" as="sourcePoint" />
            <mxPoint x="440" y="360" as="targetPoint" />
          </mxGeometry>
        </mxCell>
        <mxCell id="n171kNzoqdh-bRV9AFMk-9" value="身份证" style="endArrow=none;html=1;entryX=1;entryY=1;entryDx=0;entryDy=0;exitX=0.5;exitY=0;exitDx=0;exitDy=0;" parent="1" source="n171kNzoqdh-bRV9AFMk-6" target="n171kNzoqdh-bRV9AFMk-3" edge="1">
          <mxGeometry width="50" height="50" relative="1" as="geometry">
            <mxPoint x="390" y="410" as="sourcePoint" />
            <mxPoint x="440" y="360" as="targetPoint" />
          </mxGeometry>
        </mxCell>
        <mxCell id="n171kNzoqdh-bRV9AFMk-10" value="pic4undie" style="text;html=1;align=center;verticalAlign=middle;resizable=0;points=[];autosize=1;" parent="1" vertex="1">
          <mxGeometry x="160" y="290" width="70" height="20" as="geometry" />
        </mxCell>
        <mxCell id="n171kNzoqdh-bRV9AFMk-11" value="385" style="ellipse;whiteSpace=wrap;html=1;" parent="1" vertex="1">
          <mxGeometry x="535" y="420" width="50" height="50" as="geometry" />
        </mxCell>
        <mxCell id="n171kNzoqdh-bRV9AFMk-12" value="384" style="ellipse;whiteSpace=wrap;html=1;" parent="1" vertex="1">
          <mxGeometry x="340" y="420" width="50" height="50" as="geometry" />
        </mxCell>
        <mxCell id="n171kNzoqdh-bRV9AFMk-13" value="白名单" style="endArrow=none;html=1;entryX=0;entryY=1;entryDx=0;entryDy=0;" parent="1" source="n171kNzoqdh-bRV9AFMk-12" target="n171kNzoqdh-bRV9AFMk-6" edge="1">
          <mxGeometry width="50" height="50" relative="1" as="geometry">
            <mxPoint x="390" y="410" as="sourcePoint" />
            <mxPoint x="440" y="360" as="targetPoint" />
          </mxGeometry>
        </mxCell>
        <mxCell id="n171kNzoqdh-bRV9AFMk-14" value="非白名单" style="endArrow=none;html=1;entryX=1;entryY=1;entryDx=0;entryDy=0;exitX=0.5;exitY=0;exitDx=0;exitDy=0;" parent="1" source="n171kNzoqdh-bRV9AFMk-11" target="n171kNzoqdh-bRV9AFMk-6" edge="1">
          <mxGeometry width="50" height="50" relative="1" as="geometry">
            <mxPoint x="390" y="410" as="sourcePoint" />
            <mxPoint x="440" y="360" as="targetPoint" />
          </mxGeometry>
        </mxCell>
        <mxCell id="n171kNzoqdh-bRV9AFMk-15" value="accept" style="text;html=1;align=center;verticalAlign=middle;resizable=0;points=[];autosize=1;" parent="1" vertex="1">
          <mxGeometry x="295" y="410" width="50" height="20" as="geometry" />
        </mxCell>
        <mxCell id="n171kNzoqdh-bRV9AFMk-16" value="388" style="ellipse;whiteSpace=wrap;html=1;" parent="1" vertex="1">
          <mxGeometry x="690" y="610" width="50" height="50" as="geometry" />
        </mxCell>
        <mxCell id="n171kNzoqdh-bRV9AFMk-17" value="386" style="ellipse;whiteSpace=wrap;html=1;" parent="1" vertex="1">
          <mxGeometry x="480" y="520" width="50" height="50" as="geometry" />
        </mxCell>
        <mxCell id="n171kNzoqdh-bRV9AFMk-18" value="二要素通过" style="endArrow=none;html=1;entryX=0;entryY=1;entryDx=0;entryDy=0;exitX=0.5;exitY=0;exitDx=0;exitDy=0;" parent="1" source="n171kNzoqdh-bRV9AFMk-17" target="n171kNzoqdh-bRV9AFMk-11" edge="1">
          <mxGeometry width="50" height="50" relative="1" as="geometry">
            <mxPoint x="390" y="510" as="sourcePoint" />
            <mxPoint x="440" y="460" as="targetPoint" />
          </mxGeometry>
        </mxCell>
        <mxCell id="n171kNzoqdh-bRV9AFMk-20" value="accept" style="text;html=1;align=center;verticalAlign=middle;resizable=0;points=[];autosize=1;" parent="1" vertex="1">
          <mxGeometry x="435" y="510" width="50" height="20" as="geometry" />
        </mxCell>
        <mxCell id="LBNIHkznup9EwSqmdBx4-1" value="389" style="ellipse;whiteSpace=wrap;html=1;" parent="1" vertex="1">
          <mxGeometry x="777" y="720" width="50" height="50" as="geometry" />
        </mxCell>
        <mxCell id="LBNIHkznup9EwSqmdBx4-2" value="387" style="ellipse;whiteSpace=wrap;html=1;" parent="1" vertex="1">
          <mxGeometry x="610" y="710" width="50" height="50" as="geometry" />
        </mxCell>
        <mxCell id="LBNIHkznup9EwSqmdBx4-3" value="成年" style="endArrow=none;html=1;exitX=0;exitY=1;exitDx=0;exitDy=0;entryX=1;entryY=0;entryDx=0;entryDy=0;" parent="1" source="n171kNzoqdh-bRV9AFMk-16" target="LBNIHkznup9EwSqmdBx4-2" edge="1">
          <mxGeometry width="50" height="50" relative="1" as="geometry">
            <mxPoint x="700" y="400" as="sourcePoint" />
            <mxPoint x="750" y="350" as="targetPoint" />
          </mxGeometry>
        </mxCell>
        <mxCell id="LBNIHkznup9EwSqmdBx4-4" value="未成年" style="endArrow=none;html=1;entryX=1;entryY=1;entryDx=0;entryDy=0;exitX=0;exitY=0;exitDx=0;exitDy=0;" parent="1" source="LBNIHkznup9EwSqmdBx4-1" target="n171kNzoqdh-bRV9AFMk-16" edge="1">
          <mxGeometry width="50" height="50" relative="1" as="geometry">
            <mxPoint x="700" y="400" as="sourcePoint" />
            <mxPoint x="750" y="350" as="targetPoint" />
          </mxGeometry>
        </mxCell>
        <mxCell id="LBNIHkznup9EwSqmdBx4-5" value="refuse&lt;br&gt;1-1" style="text;html=1;align=center;verticalAlign=middle;resizable=0;points=[];autosize=1;" parent="1" vertex="1">
          <mxGeometry x="560" y="720" width="50" height="30" as="geometry" />
        </mxCell>
        <mxCell id="LBNIHkznup9EwSqmdBx4-6" value="391" style="ellipse;whiteSpace=wrap;html=1;direction=south;" parent="1" vertex="1">
          <mxGeometry x="850" y="830" width="50" height="50" as="geometry" />
        </mxCell>
        <mxCell id="LBNIHkznup9EwSqmdBx4-7" value="390" style="ellipse;whiteSpace=wrap;html=1;" parent="1" vertex="1">
          <mxGeometry x="680" y="830" width="50" height="50" as="geometry" />
        </mxCell>
        <mxCell id="LBNIHkznup9EwSqmdBx4-8" value="支持其他证件类型" style="endArrow=none;html=1;entryX=0;entryY=1;entryDx=0;entryDy=0;exitX=1;exitY=0;exitDx=0;exitDy=0;" parent="1" source="LBNIHkznup9EwSqmdBx4-7" target="LBNIHkznup9EwSqmdBx4-1" edge="1">
          <mxGeometry width="50" height="50" relative="1" as="geometry">
            <mxPoint x="700" y="400" as="sourcePoint" />
            <mxPoint x="750" y="350" as="targetPoint" />
          </mxGeometry>
        </mxCell>
        <mxCell id="LBNIHkznup9EwSqmdBx4-9" value="不支持其他证件" style="endArrow=none;html=1;entryX=1;entryY=1;entryDx=0;entryDy=0;exitX=0;exitY=0;exitDx=0;exitDy=0;" parent="1" source="LBNIHkznup9EwSqmdBx4-6" target="LBNIHkznup9EwSqmdBx4-1" edge="1">
          <mxGeometry width="50" height="50" relative="1" as="geometry">
            <mxPoint x="700" y="400" as="sourcePoint" />
            <mxPoint x="750" y="350" as="targetPoint" />
          </mxGeometry>
        </mxCell>
        <mxCell id="LBNIHkznup9EwSqmdBx4-10" value="refuse&lt;br&gt;1-2" style="text;html=1;align=center;verticalAlign=middle;resizable=0;points=[];autosize=1;" parent="1" vertex="1">
          <mxGeometry x="630" y="850" width="50" height="30" as="geometry" />
        </mxCell>
        <mxCell id="LBNIHkznup9EwSqmdBx4-11" value="refuse&lt;br&gt;1-3" style="text;html=1;align=center;verticalAlign=middle;resizable=0;points=[];autosize=1;" parent="1" vertex="1">
          <mxGeometry x="890" y="840" width="50" height="30" as="geometry" />
        </mxCell>
        <mxCell id="tVWQMtS0H3zQMkT2hb6V-3" value="426" style="ellipse;whiteSpace=wrap;html=1;" vertex="1" parent="1">
          <mxGeometry x="610" y="520" width="50" height="50" as="geometry" />
        </mxCell>
        <mxCell id="tVWQMtS0H3zQMkT2hb6V-9" value="二要素不通过" style="endArrow=none;html=1;entryX=1;entryY=1;entryDx=0;entryDy=0;exitX=0.36;exitY=0.02;exitDx=0;exitDy=0;exitPerimeter=0;" edge="1" parent="1" source="tVWQMtS0H3zQMkT2hb6V-3">
          <mxGeometry x="-0.1737" width="50" height="50" relative="1" as="geometry">
            <mxPoint x="660" y="527.3199999999999" as="sourcePoint" />
            <mxPoint x="582.6776695296637" y="459.9976695296637" as="targetPoint" />
            <Array as="points" />
            <mxPoint as="offset" />
          </mxGeometry>
        </mxCell>
        <mxCell id="tVWQMtS0H3zQMkT2hb6V-10" value="427" style="ellipse;whiteSpace=wrap;html=1;" vertex="1" parent="1">
          <mxGeometry x="535" y="610" width="50" height="50" as="geometry" />
        </mxCell>
        <mxCell id="tVWQMtS0H3zQMkT2hb6V-12" value="OCR识别通过" style="endArrow=none;html=1;entryX=0;entryY=1;entryDx=0;entryDy=0;exitX=0.5;exitY=0;exitDx=0;exitDy=0;" edge="1" parent="1">
          <mxGeometry width="50" height="50" relative="1" as="geometry">
            <mxPoint x="572.68" y="614" as="sourcePoint" />
            <mxPoint x="610.0023304703362" y="556.6776695296637" as="targetPoint" />
            <Array as="points" />
          </mxGeometry>
        </mxCell>
        <mxCell id="tVWQMtS0H3zQMkT2hb6V-14" value="OCR识别不通过" style="endArrow=none;html=1;entryX=1;entryY=1;entryDx=0;entryDy=0;exitX=0.5;exitY=0;exitDx=0;exitDy=0;" edge="1" parent="1">
          <mxGeometry x="-0.1737" width="50" height="50" relative="1" as="geometry">
            <mxPoint x="705" y="610" as="sourcePoint" />
            <mxPoint x="659.9976695296638" y="553.9976695296637" as="targetPoint" />
            <Array as="points" />
            <mxPoint as="offset" />
          </mxGeometry>
        </mxCell>
        <mxCell id="tVWQMtS0H3zQMkT2hb6V-15" value="accept" style="text;html=1;align=center;verticalAlign=middle;resizable=0;points=[];autosize=1;" vertex="1" parent="1">
          <mxGeometry x="490" y="620" width="50" height="20" as="geometry" />
        </mxCell>
      </root>
    </mxGraphModel>
  </diagram>
</mxfile>
